<mxfile host="app.diagrams.net" modified="2022-06-27T13:27:13.871Z" agent="5.0 (Windows NT 10.0; Win64; x64) AppleWebKit/537.36 (KHTML, like Gecko) Chrome/102.0.0.0 Safari/537.36" etag="gAyJD_Bfaz6Xb8EYmpKs" version="20.0.3" type="github">
  <diagram id="U4viIV3XaivJw4fxJDdO" name="Page-1">
    <mxGraphModel dx="2272" dy="762" grid="1" gridSize="10" guides="1" tooltips="1" connect="1" arrows="1" fold="1" page="1" pageScale="1" pageWidth="850" pageHeight="1100" math="0" shadow="0">
      <root>
        <mxCell id="0" />
        <mxCell id="1" parent="0" />
        <mxCell id="HzxNZTvXeGD2J4_-lWQK-2" value="&lt;b&gt;&lt;font style=&quot;font-size: 20px&quot;&gt;Datasets&lt;/font&gt;&lt;/b&gt;" style="text;html=1;align=center;verticalAlign=middle;resizable=0;points=[];autosize=1;strokeColor=none;" parent="1" vertex="1">
          <mxGeometry x="-70" y="160" width="100" height="20" as="geometry" />
        </mxCell>
        <mxCell id="HzxNZTvXeGD2J4_-lWQK-3" value="&lt;b&gt;&lt;font style=&quot;font-size: 20px&quot;&gt;Models&lt;/font&gt;&lt;/b&gt;" style="text;html=1;align=center;verticalAlign=middle;resizable=0;points=[];autosize=1;strokeColor=none;" parent="1" vertex="1">
          <mxGeometry x="385" y="160" width="80" height="20" as="geometry" />
        </mxCell>
        <mxCell id="HzxNZTvXeGD2J4_-lWQK-4" value="&lt;b&gt;&lt;font style=&quot;font-size: 20px&quot;&gt;Evaluation&lt;/font&gt;&lt;/b&gt;" style="text;html=1;align=center;verticalAlign=middle;resizable=0;points=[];autosize=1;strokeColor=none;" parent="1" vertex="1">
          <mxGeometry x="790" y="160" width="120" height="20" as="geometry" />
        </mxCell>
        <mxCell id="HzxNZTvXeGD2J4_-lWQK-5" value="&lt;font&gt;&lt;br&gt;&lt;/font&gt;" style="text;html=1;align=center;verticalAlign=middle;resizable=0;points=[];autosize=1;strokeColor=none;" parent="1" vertex="1">
          <mxGeometry x="-30" y="250" width="20" height="20" as="geometry" />
        </mxCell>
        <mxCell id="HzxNZTvXeGD2J4_-lWQK-6" value="&lt;font&gt;&lt;br&gt;&lt;/font&gt;" style="text;html=1;align=center;verticalAlign=middle;resizable=0;points=[];autosize=1;strokeColor=none;" parent="1" vertex="1">
          <mxGeometry x="-30" y="397" width="20" height="20" as="geometry" />
        </mxCell>
        <mxCell id="HzxNZTvXeGD2J4_-lWQK-7" value="&lt;font style=&quot;font-size: 17px&quot;&gt;&lt;br&gt;&lt;/font&gt;" style="text;html=1;align=center;verticalAlign=middle;resizable=0;points=[];autosize=1;strokeColor=none;" parent="1" vertex="1">
          <mxGeometry x="415" y="250" width="20" height="20" as="geometry" />
        </mxCell>
        <mxCell id="HzxNZTvXeGD2J4_-lWQK-8" value="&lt;font style=&quot;font-size: 17px&quot;&gt;&lt;br&gt;&lt;/font&gt;" style="text;html=1;align=center;verticalAlign=middle;resizable=0;points=[];autosize=1;strokeColor=none;" parent="1" vertex="1">
          <mxGeometry x="415" y="402" width="20" height="20" as="geometry" />
        </mxCell>
        <mxCell id="HzxNZTvXeGD2J4_-lWQK-9" value="&lt;font style=&quot;font-size: 17px&quot;&gt;&lt;br&gt;&lt;/font&gt;" style="text;html=1;align=center;verticalAlign=middle;resizable=0;points=[];autosize=1;strokeColor=none;" parent="1" vertex="1">
          <mxGeometry x="845" y="214" width="20" height="20" as="geometry" />
        </mxCell>
        <mxCell id="HzxNZTvXeGD2J4_-lWQK-10" value="&lt;font style=&quot;font-size: 17px&quot;&gt;&lt;br&gt;&lt;/font&gt;" style="text;html=1;align=center;verticalAlign=middle;resizable=0;points=[];autosize=1;strokeColor=none;" parent="1" vertex="1">
          <mxGeometry x="845" y="377" width="20" height="20" as="geometry" />
        </mxCell>
        <mxCell id="HzxNZTvXeGD2J4_-lWQK-11" value="" style="rounded=1;whiteSpace=wrap;html=1;fillColor=none;strokeColor=#0066CC;strokeWidth=3;" parent="1" vertex="1">
          <mxGeometry x="-140" y="140" width="240" height="350" as="geometry" />
        </mxCell>
        <mxCell id="HzxNZTvXeGD2J4_-lWQK-12" value="" style="rounded=1;whiteSpace=wrap;html=1;fillColor=none;strokeColor=#66CC00;strokeWidth=3;" parent="1" vertex="1">
          <mxGeometry x="305" y="140" width="240" height="350" as="geometry" />
        </mxCell>
        <mxCell id="HzxNZTvXeGD2J4_-lWQK-13" value="" style="rounded=1;whiteSpace=wrap;html=1;fillColor=none;strokeWidth=3;strokeColor=#FF8000;" parent="1" vertex="1">
          <mxGeometry x="735" y="140" width="240" height="350" as="geometry" />
        </mxCell>
        <mxCell id="CzQ5qZAhfwt6oCLY_IuG-6" style="edgeStyle=entityRelationEdgeStyle;rounded=0;orthogonalLoop=1;jettySize=auto;html=1;entryX=0;entryY=0.5;entryDx=0;entryDy=0;elbow=vertical;" parent="1" source="HzxNZTvXeGD2J4_-lWQK-14" target="HzxNZTvXeGD2J4_-lWQK-18" edge="1">
          <mxGeometry relative="1" as="geometry" />
        </mxCell>
        <mxCell id="HzxNZTvXeGD2J4_-lWQK-14" value="&lt;span style=&quot;font-size: 17px&quot;&gt;Language Models&lt;br&gt;&lt;/span&gt;&lt;span style=&quot;font-size: 17px&quot;&gt;+&lt;/span&gt;&lt;br style=&quot;font-size: 17px&quot;&gt;&lt;span style=&quot;font-size: 17px&quot;&gt;Classifiers&lt;/span&gt;" style="rounded=0;whiteSpace=wrap;html=1;fillColor=none;strokeColor=#66CC00;strokeWidth=2;" parent="1" vertex="1">
          <mxGeometry x="350" y="222.5" width="150" height="75" as="geometry" />
        </mxCell>
        <mxCell id="CzQ5qZAhfwt6oCLY_IuG-3" style="edgeStyle=entityRelationEdgeStyle;rounded=0;orthogonalLoop=1;jettySize=auto;html=1;exitX=1;exitY=0.5;exitDx=0;exitDy=0;entryX=0;entryY=0.5;entryDx=0;entryDy=0;elbow=vertical;" parent="1" source="HzxNZTvXeGD2J4_-lWQK-15" target="HzxNZTvXeGD2J4_-lWQK-17" edge="1">
          <mxGeometry relative="1" as="geometry" />
        </mxCell>
        <mxCell id="CzQ5qZAhfwt6oCLY_IuG-5" style="edgeStyle=entityRelationEdgeStyle;rounded=0;orthogonalLoop=1;jettySize=auto;html=1;entryX=0;entryY=0.5;entryDx=0;entryDy=0;elbow=vertical;" parent="1" source="HzxNZTvXeGD2J4_-lWQK-15" target="HzxNZTvXeGD2J4_-lWQK-14" edge="1">
          <mxGeometry relative="1" as="geometry" />
        </mxCell>
        <mxCell id="HzxNZTvXeGD2J4_-lWQK-15" value="&lt;span style=&quot;font-size: 17px;&quot;&gt;Intent Recognition&lt;/span&gt;" style="rounded=0;whiteSpace=wrap;html=1;fillColor=none;strokeColor=#0066CC;strokeWidth=2;" parent="1" vertex="1">
          <mxGeometry x="-80" y="232.5" width="120" height="60" as="geometry" />
        </mxCell>
        <mxCell id="CzQ5qZAhfwt6oCLY_IuG-4" style="edgeStyle=entityRelationEdgeStyle;rounded=0;orthogonalLoop=1;jettySize=auto;html=1;entryX=0;entryY=0.5;entryDx=0;entryDy=0;elbow=vertical;" parent="1" source="HzxNZTvXeGD2J4_-lWQK-16" target="HzxNZTvXeGD2J4_-lWQK-17" edge="1">
          <mxGeometry relative="1" as="geometry" />
        </mxCell>
        <mxCell id="HzxNZTvXeGD2J4_-lWQK-16" value="&lt;span style=&quot;font-size: 17px&quot;&gt;Conversation&lt;/span&gt;" style="rounded=0;whiteSpace=wrap;html=1;fillColor=none;strokeColor=#0066CC;strokeWidth=2;" parent="1" vertex="1">
          <mxGeometry x="-80" y="382" width="120" height="60" as="geometry" />
        </mxCell>
        <mxCell id="CzQ5qZAhfwt6oCLY_IuG-7" style="edgeStyle=entityRelationEdgeStyle;rounded=0;orthogonalLoop=1;jettySize=auto;html=1;entryX=0;entryY=0.5;entryDx=0;entryDy=0;elbow=vertical;" parent="1" source="HzxNZTvXeGD2J4_-lWQK-17" target="HzxNZTvXeGD2J4_-lWQK-19" edge="1">
          <mxGeometry relative="1" as="geometry" />
        </mxCell>
        <mxCell id="CzQ5qZAhfwt6oCLY_IuG-8" style="edgeStyle=entityRelationEdgeStyle;rounded=0;orthogonalLoop=1;jettySize=auto;html=1;entryX=0;entryY=0.5;entryDx=0;entryDy=0;elbow=vertical;" parent="1" source="HzxNZTvXeGD2J4_-lWQK-17" target="HzxNZTvXeGD2J4_-lWQK-18" edge="1">
          <mxGeometry relative="1" as="geometry" />
        </mxCell>
        <mxCell id="HzxNZTvXeGD2J4_-lWQK-17" value="&lt;span style=&quot;font-size: 17px&quot;&gt;Language Models&lt;br&gt;&lt;/span&gt;&lt;span style=&quot;font-size: 17px&quot;&gt;+&lt;/span&gt;&lt;br style=&quot;font-size: 17px&quot;&gt;&lt;span style=&quot;font-size: 17px&quot;&gt;Bandits&lt;/span&gt;" style="rounded=0;whiteSpace=wrap;html=1;fillColor=none;strokeColor=#66CC00;strokeWidth=2;" parent="1" vertex="1">
          <mxGeometry x="350" y="374.5" width="150" height="75" as="geometry" />
        </mxCell>
        <mxCell id="HzxNZTvXeGD2J4_-lWQK-18" value="&lt;b&gt;&lt;font style=&quot;font-size: 16px&quot;&gt;Classifier Metrics:&lt;/font&gt;&lt;/b&gt;&lt;br&gt;&lt;span style=&quot;font-size: 17px&quot;&gt;F1 Score,&lt;/span&gt;&lt;br style=&quot;font-size: 17px&quot;&gt;&lt;span style=&quot;font-size: 17px&quot;&gt;Accuracy&lt;/span&gt;" style="rounded=0;whiteSpace=wrap;html=1;fillColor=none;strokeWidth=2;strokeColor=#FF8000;" parent="1" vertex="1">
          <mxGeometry x="777.5" y="218" width="145" height="77.5" as="geometry" />
        </mxCell>
        <mxCell id="HzxNZTvXeGD2J4_-lWQK-19" value="&lt;b&gt;&lt;font style=&quot;font-size: 16px&quot;&gt;Online Learning Metric:&lt;br&gt;&lt;/font&gt;&lt;/b&gt;&lt;span style=&quot;font-size: 17px&quot;&gt;Regret&amp;nbsp;&lt;/span&gt;" style="rounded=0;whiteSpace=wrap;html=1;fillColor=none;strokeWidth=2;strokeColor=#FF8000;" parent="1" vertex="1">
          <mxGeometry x="777.5" y="371.5" width="145" height="77.5" as="geometry" />
        </mxCell>
        <UserObject label="" link="https://upload.wikimedia.org/wikipedia/commons/thumb/2/2d/Tensorflow_logo.svg/1200px-Tensorflow_logo.svg.png" id="HzxNZTvXeGD2J4_-lWQK-25">
          <mxCell style="rounded=0;whiteSpace=wrap;html=1;strokeWidth=2;strokeColor=#4D4D4D;fillColor=none;" parent="1" vertex="1">
            <mxGeometry x="-160" y="79.99" width="1160" height="570" as="geometry" />
          </mxCell>
        </UserObject>
        <mxCell id="HzxNZTvXeGD2J4_-lWQK-26" value="" style="shape=image;verticalLabelPosition=bottom;labelBackgroundColor=#ffffff;verticalAlign=top;aspect=fixed;imageAspect=0;image=https://uptime-storage.s3.amazonaws.com/logos/d32f5c39b694f3e64d29fc2c9b988cdd.png;" parent="1" vertex="1">
          <mxGeometry x="170" y="509.99" width="130" height="130" as="geometry" />
        </mxCell>
        <mxCell id="HzxNZTvXeGD2J4_-lWQK-27" value="" style="shape=image;verticalLabelPosition=bottom;labelBackgroundColor=#ffffff;verticalAlign=top;aspect=fixed;imageAspect=0;image=https://upload.wikimedia.org/wikipedia/commons/thumb/2/2d/Tensorflow_logo.svg/1200px-Tensorflow_logo.svg.png;" parent="1" vertex="1">
          <mxGeometry x="367" y="523.64" width="96" height="102.71" as="geometry" />
        </mxCell>
        <mxCell id="HzxNZTvXeGD2J4_-lWQK-28" value="" style="shape=image;verticalLabelPosition=bottom;labelBackgroundColor=#ffffff;verticalAlign=top;aspect=fixed;imageAspect=0;image=https://pytorch.org/assets/images/pytorch-logo.png;" parent="1" vertex="1">
          <mxGeometry x="500" y="509.99" width="140" height="140" as="geometry" />
        </mxCell>
      </root>
    </mxGraphModel>
  </diagram>
</mxfile>
